<svg xmlns="http://www.w3.org/2000/svg" width="1514" height="1078" viewBox="0 0 1514 1078" fill="none" role="img" aria-labelledby="title desc">
  <title id="title">Tech Stack Capability Matrix</title>
  <desc id="desc">Dark neon capability matrix matching the reference layout without Docker.</desc>
  <defs>
    <linearGradient id="bg" x1="0" y1="0" x2="1514" y2="1078" gradientUnits="userSpaceOnUse">
      <stop stop-color="#04070B" />
      <stop offset="1" stop-color="#050911" />
    </linearGradient>
    <linearGradient id="frame" x1="0" y1="0" x2="1514" y2="0" gradientUnits="userSpaceOnUse">
      <stop stop-color="#0E4A63" />
      <stop offset="1" stop-color="#1B2140" />
    </linearGradient>
    <linearGradient id="cyan" x1="0" y1="0" x2="1" y2="0">
      <stop stop-color="#21F3FF" />
      <stop offset="1" stop-color="#22D3EE" />
    </linearGradient>
    <linearGradient id="purple" x1="0" y1="0" x2="1" y2="0">
      <stop stop-color="#A855F7" />
      <stop offset="1" stop-color="#8B5CF6" />
    </linearGradient>
    <linearGradient id="green" x1="0" y1="0" x2="1" y2="0">
      <stop stop-color="#22C55E" />
      <stop offset="1" stop-color="#10B981" />
    </linearGradient>
    <linearGradient id="amber" x1="0" y1="0" x2="1" y2="0">
      <stop stop-color="#F59E0B" />
      <stop offset="1" stop-color="#FB923C" />
    </linearGradient>
    <linearGradient id="pink" x1="0" y1="0" x2="1" y2="0">
      <stop stop-color="#EC4899" />
      <stop offset="1" stop-color="#F472B6" />
    </linearGradient>
    <filter id="glow" x="-30%" y="-30%" width="160%" height="160%">
      <feGaussianBlur stdDeviation="10" />
    </filter>
  </defs>

  <rect width="1514" height="1078" rx="14" fill="url(#bg)" />
  <rect x="16" y="16" width="1482" height="1046" rx="12" stroke="#0E3642" stroke-width="2" fill="none" />
  <rect x="24" y="24" width="1466" height="1030" rx="10" stroke="#143646" stroke-width="1" fill="none" opacity="0.7" />

  <g font-family="Segoe UI, Arial, sans-serif">
    <rect x="40" y="40" width="1434" height="66" rx="8" stroke="#0D475C" stroke-width="1.5" fill="#050A12" />
    <text x="60" y="82" font-size="28" font-weight="800" fill="url(#cyan)">[ TECH_STACK ]</text>
    <text x="288" y="82" font-size="28" font-weight="800" fill="#A855F7">//</text>
    <text x="352" y="82" font-size="28" font-weight="800" fill="#C084FC">CAPABILITY_MATRIX</text>
    <text x="1315" y="79" font-size="18" fill="#9CC6DF">SYS.PRODUCTION_STACK</text>
    <circle cx="1448" cy="74" r="6" fill="#22C55E" />
  </g>

  <rect x="40" y="122" width="1434" height="78" rx="8" stroke="#0D475C" stroke-width="1.5" fill="#050A12" />
  <g font-family="Segoe UI, Arial, sans-serif" font-size="20" letter-spacing="0.5">
    <text x="96" y="170" fill="#C3D5EA">STACK.STATUS :</text>
    <text x="257" y="170" fill="#22C55E">ACTIVE</text>
    <text x="492" y="170" fill="#C3D5EA">CORE.MODULES :</text>
    <text x="683" y="170" fill="#22D3EE">LOADED</text>
    <text x="897" y="170" fill="#C3D5EA">STACK.VERSION :</text>
    <text x="1070" y="170" fill="#C084FC">2.0.1</text>
    <text x="1275" y="170" fill="#C3D5EA">LAST.UPDATE :</text>
    <text x="1434" y="170" fill="#22C55E">NOW</text>
  </g>

  <g>
    <rect x="40" y="218" width="498" height="290" rx="10" stroke="#0B7285" stroke-width="1.4" fill="#050A12" />
    <rect x="40" y="540" width="498" height="330" rx="10" stroke="#7C3AED" stroke-width="1.4" fill="#050A12" />
    <rect x="40" y="904" width="498" height="134" rx="10" stroke="#16A34A" stroke-width="1.4" fill="#050A12" />

    <rect x="976" y="218" width="498" height="290" rx="10" stroke="#F59E0B" stroke-width="1.4" fill="#050A12" />
    <rect x="976" y="540" width="498" height="198" rx="10" stroke="#22D3EE" stroke-width="1.4" fill="#050A12" />
    <rect x="976" y="772" width="498" height="160" rx="10" stroke="#8B5CF6" stroke-width="1.4" fill="#050A12" />
    <rect x="976" y="972" width="498" height="72" rx="10" stroke="#EC4899" stroke-width="1.4" fill="#050A12" />
  </g>

  <g font-family="Segoe UI, Arial, sans-serif" fill="#DCE7F2">
    <g transform="translate(74 254)">
      <path d="M22 0l26 15v30l-26 15-26-15V15z" stroke="#14B8C8" stroke-width="2.2" fill="none" />
      <text x="73" y="24" font-size="22" font-weight="800" fill="url(#cyan)">01. LANGUAGES</text>
      <line x1="73" y1="39" x2="455" y2="39" stroke="#0F3E50" />
      <g font-size="18">
        <rect x="73" y="58" width="140" height="36" rx="6" stroke="#33505E" fill="#0C151D" />
        <rect x="223" y="58" width="142" height="36" rx="6" stroke="#33505E" fill="#0C151D" />
        <rect x="375" y="58" width="122" height="36" rx="6" stroke="#33505E" fill="#0C151D" />
        <rect x="73" y="106" width="112" height="36" rx="6" stroke="#33505E" fill="#0C151D" />
        <rect x="195" y="106" width="108" height="36" rx="6" stroke="#33505E" fill="#0C151D" />
        <text x="85" y="82"><tspan fill="#F7DF1E">JS</tspan><tspan dx="10" fill="#DCE7F2">JavaScript</tspan></text>
        <text x="235" y="82"><tspan fill="#3178C6">TS</tspan><tspan dx="10" fill="#DCE7F2">TypeScript</tspan></text>
        <text x="387" y="82"><tspan fill="#3776AB">🐍</tspan><tspan dx="10" fill="#DCE7F2">Python</tspan></text>
        <text x="86" y="130"><tspan fill="#F97316">HTML5</tspan></text>
        <text x="208" y="130"><tspan fill="#3B82F6">CSS3</tspan></text>
      </g>
    </g>

    <g transform="translate(74 575)">
      <path d="M22 0l26 15v30l-26 15-26-15V15z" stroke="#A855F7" stroke-width="2.2" fill="none" />
      <text x="73" y="24" font-size="22" font-weight="800" fill="url(#purple)">02. FRONTEND &amp; MOBILE</text>
      <line x1="73" y1="39" x2="455" y2="39" stroke="#3B2355" />
      <g font-size="18">
        <rect x="73" y="58" width="130" height="36" rx="6" stroke="#33505E" fill="#0C151D" />
        <rect x="213" y="58" width="126" height="36" rx="6" stroke="#33505E" fill="#0C151D" />
        <rect x="349" y="58" width="160" height="36" rx="6" stroke="#33505E" fill="#0C151D" />
        <rect x="73" y="106" width="156" height="36" rx="6" stroke="#33505E" fill="#0C151D" />
        <rect x="239" y="106" width="122" height="36" rx="6" stroke="#33505E" fill="#0C151D" />
        <rect x="73" y="154" width="144" height="36" rx="6" stroke="#33505E" fill="#0C151D" />
        <rect x="227" y="154" width="128" height="36" rx="6" stroke="#33505E" fill="#0C151D" />
        <text x="85" y="82">React.js</text>
        <text x="225" y="82">Next.js</text>
        <text x="361" y="82">React Native</text>
        <text x="85" y="130">Tailwind CSS</text>
        <text x="251" y="130">Shadcn UI</text>
        <text x="85" y="178">Redux Toolkit</text>
        <text x="239" y="178">Framer Motion</text>
      </g>
    </g>

    <g transform="translate(74 929)">
      <path d="M22 0l26 15v30l-26 15-26-15V15z" stroke="#22C55E" stroke-width="2.2" fill="none" />
      <text x="73" y="24" font-size="22" font-weight="800" fill="url(#green)">03. BACKEND &amp; SYSTEMS</text>
      <line x1="73" y1="39" x2="455" y2="39" stroke="#143F2C" />
      <g font-size="18">
        <rect x="73" y="58" width="118" height="36" rx="6" stroke="#33505E" fill="#0C151D" />
        <rect x="201" y="58" width="134" height="36" rx="6" stroke="#33505E" fill="#0C151D" />
        <rect x="345" y="58" width="130" height="36" rx="6" stroke="#33505E" fill="#0C151D" />
        <text x="85" y="82">Node.js</text>
        <text x="213" y="82">Express.js</text>
        <text x="357" y="82">RESTful APIs</text>
      </g>
    </g>
  </g>

  <g transform="translate(74 553)">
    <path d="M18 0l22 13v26l-22 13-22-13V13z" stroke="#7C3AED" stroke-width="2.2" fill="none" />
    <g font-family="Segoe UI, Arial, sans-serif" fill="#DCE7F2">
      <text x="73" y="24" font-size="22" font-weight="800" fill="url(#purple)">04. DATABASE &amp; CLOUD</text>
      <line x1="73" y1="39" x2="455" y2="39" stroke="#33204B" />
      <g font-size="18">
        <rect x="73" y="58" width="118" height="36" rx="6" stroke="#33505E" fill="#0C151D" />
        <rect x="201" y="58" width="132" height="36" rx="6" stroke="#33505E" fill="#0C151D" />
        <rect x="73" y="106" width="100" height="36" rx="6" stroke="#33505E" fill="#0C151D" />
        <rect x="183" y="106" width="132" height="36" rx="6" stroke="#33505E" fill="#0C151D" />
        <text x="85" y="82">MongoDB</text>
        <text x="213" y="82">Mongoose</text>
        <text x="85" y="130">AWS</text>
        <text x="195" y="130">Cloudinary</text>
      </g>
    </g>
  </g>

  <g transform="translate(1000 254)">
    <path d="M22 0l26 15v30l-26 15-26-15V15z" stroke="#F59E0B" stroke-width="2.2" fill="none" />
    <text x="73" y="24" font-size="22" font-weight="800" fill="url(#amber)">05. TOOLS &amp; DEVOPS</text>
    <line x1="73" y1="39" x2="455" y2="39" stroke="#4B3112" />
    <g font-size="18">
      <rect x="73" y="58" width="96" height="36" rx="6" stroke="#33505E" fill="#0C151D" />
      <rect x="179" y="58" width="122" height="36" rx="6" stroke="#33505E" fill="#0C151D" />
      <rect x="311" y="58" width="118" height="36" rx="6" stroke="#33505E" fill="#0C151D" />
      <rect x="73" y="106" width="120" height="36" rx="6" stroke="#33505E" fill="#0C151D" />
      <rect x="203" y="106" width="110" height="36" rx="6" stroke="#33505E" fill="#0C151D" />
      <rect x="323" y="106" width="140" height="36" rx="6" stroke="#33505E" fill="#0C151D" />
      <rect x="73" y="154" width="120" height="36" rx="6" stroke="#33505E" fill="#0C151D" />
      <rect x="203" y="154" width="100" height="36" rx="6" stroke="#33505E" fill="#0C151D" />
      <rect x="313" y="154" width="140" height="36" rx="6" stroke="#33505E" fill="#0C151D" />
      <text x="85" y="82">Git</text>
      <text x="191" y="82">GitHub</text>
      <text x="323" y="82">Postman</text>
      <text x="85" y="130">CI/CD</text>
      <text x="215" y="130">Razorpay</text>
      <text x="335" y="130">Stripe</text>
      <text x="85" y="178">PWA</text>
      <text x="215" y="178">VS Code</text>
    </g>
  </g>

  <g transform="translate(1000 576)">
    <path d="M22 0l26 15v30l-26 15-26-15V15z" stroke="#22D3EE" stroke-width="2.2" fill="none" />
    <text x="73" y="24" font-size="22" font-weight="800" fill="url(#cyan)">06. ARCHITECTURE &amp; CONCEPTS</text>
    <line x1="73" y1="39" x2="455" y2="39" stroke="#0F3E50" />
    <g font-size="18">
      <rect x="73" y="58" width="150" height="36" rx="6" stroke="#33505E" fill="#0C151D" />
      <rect x="233" y="58" width="138" height="36" rx="6" stroke="#33505E" fill="#0C151D" />
      <rect x="381" y="58" width="104" height="36" rx="6" stroke="#33505E" fill="#0C151D" />
      <rect x="73" y="106" width="84" height="36" rx="6" stroke="#33505E" fill="#0C151D" />
      <rect x="167" y="106" width="116" height="36" rx="6" stroke="#33505E" fill="#0C151D" />
      <rect x="293" y="106" width="84" height="36" rx="6" stroke="#33505E" fill="#0C151D" />
      <rect x="73" y="154" width="86" height="36" rx="6" stroke="#33505E" fill="#0C151D" />
      <rect x="169" y="154" width="90" height="36" rx="6" stroke="#33505E" fill="#0C151D" />
      <rect x="269" y="154" width="94" height="36" rx="6" stroke="#33505E" fill="#0C151D" />
      <text x="85" y="82">Microservices</text>
      <text x="245" y="82">System Design</text>
      <text x="393" y="82">REST</text>
      <text x="85" y="130">API Design</text>
      <text x="179" y="130">MVC</text>
      <text x="305" y="130">Agile</text>
      <text x="85" y="178">SDLC</text>
      <text x="181" y="178">OOPs</text>
      <text x="281" y="178">Patterns</text>
    </g>
  </g>

  <g transform="translate(1000 808)">
    <path d="M22 0l26 15v30l-26 15-26-15V15z" stroke="#8B5CF6" stroke-width="2.2" fill="none" />
    <text x="73" y="24" font-size="22" font-weight="800" fill="url(#purple)">07. CORE COMPUTER SCIENCE</text>
    <line x1="73" y1="39" x2="455" y2="39" stroke="#33204B" />
    <g font-size="18">
      <rect x="73" y="58" width="90" height="36" rx="6" stroke="#33505E" fill="#0C151D" />
      <rect x="173" y="58" width="92" height="36" rx="6" stroke="#33505E" fill="#0C151D" />
      <rect x="275" y="58" width="86" height="36" rx="6" stroke="#33505E" fill="#0C151D" />
      <rect x="73" y="106" width="84" height="36" rx="6" stroke="#33505E" fill="#0C151D" />
      <rect x="167" y="106" width="92" height="36" rx="6" stroke="#33505E" fill="#0C151D" />
      <rect x="269" y="106" width="80" height="36" rx="6" stroke="#33505E" fill="#0C151D" />
      <text x="93" y="82">DSA</text>
      <text x="193" y="82">DBMS</text>
      <text x="295" y="82">OS</text>
      <text x="93" y="130">CN</text>
      <text x="185" y="130">OOPs</text>
      <text x="287" y="130">SQL</text>
    </g>
  </g>

  <g transform="translate(1000 972)">
    <path d="M22 0l26 15v30l-26 15-26-15V15z" stroke="#EC4899" stroke-width="2.2" fill="none" />
    <text x="73" y="24" font-size="22" font-weight="800" fill="url(#pink)">08. SPECIAL INTERESTS</text>
    <line x1="73" y1="39" x2="455" y2="39" stroke="#4C2141" />
    <g font-size="18">
      <rect x="73" y="58" width="144" height="36" rx="6" stroke="#33505E" fill="#0C151D" />
      <rect x="227" y="58" width="158" height="36" rx="6" stroke="#33505E" fill="#0C151D" />
      <text x="85" y="82">UI/UX Design</text>
      <text x="239" y="82">Problem Solving</text>
    </g>
  </g>

  <g transform="translate(584 346)">
    <circle cx="176" cy="194" r="170" fill="none" stroke="#0F3847" stroke-width="1.2" stroke-dasharray="6 10" opacity="0.8" />
    <circle cx="176" cy="194" r="142" fill="none" stroke="#1F4A5A" stroke-width="1.2" opacity="0.8" />
    <circle cx="176" cy="194" r="118" fill="none" stroke="#163445" stroke-width="1.2" />
    <circle cx="176" cy="194" r="96" fill="none" stroke="#0E2230" stroke-width="3" />
    <circle cx="176" cy="194" r="79" fill="none" stroke="#17263A" stroke-width="2" />
    <circle cx="176" cy="194" r="61" fill="none" stroke="#10202D" stroke-width="2" />
    <circle cx="176" cy="194" r="46" fill="#050A12" stroke="#15384C" stroke-width="3" />
    <circle cx="176" cy="194" r="28" fill="#050A12" stroke="#19D7F6" stroke-width="2.5" />
    <path d="M176 106l8 13h-16z" fill="#1DDBF7" />
    <path d="M176 282l8-13h-16z" fill="#1DDBF7" />
    <path d="M100 194l13-8v16z" fill="#1DDBF7" />
    <path d="M252 194l-13-8v16z" fill="#1DDBF7" />
    <g stroke-linecap="round" fill="none">
      <path d="M176 113a81 81 0 0 1 67 35" stroke="#22D3EE" stroke-width="7" />
      <path d="M230 167a81 81 0 0 1 -4 67" stroke="#8B5CF6" stroke-width="7" />
      <path d="M122 263a81 81 0 0 1 -12 -59" stroke="#22D3EE" stroke-width="7" />
      <path d="M138 133a81 81 0 0 1 44 -20" stroke="#8B5CF6" stroke-width="7" />
      <path d="M200 129a81 81 0 0 1 39 25" stroke="#38BDF8" stroke-width="7" />
      <path d="M113 216a81 81 0 0 1 13 -45" stroke="#38BDF8" stroke-width="7" />
    </g>
    <text x="176" y="186" text-anchor="middle" font-family="Segoe UI, Arial, sans-serif" font-size="26" font-weight="800" fill="#1DE5F9">FULL STACK</text>
    <text x="176" y="218" text-anchor="middle" font-family="Segoe UI, Arial, sans-serif" font-size="26" font-weight="800" fill="#1DE5F9">DEVELOPER</text>
    <text x="176" y="254" text-anchor="middle" font-family="Segoe UI, Arial, sans-serif" font-size="22" fill="#7DD3FC">&lt;/&gt;</text>
    <text x="176" y="293" text-anchor="middle" font-family="Segoe UI, Arial, sans-serif" font-size="15" fill="#1DE5F9">BUILD • SHIP • SCALE</text>
    <circle cx="50" cy="132" r="6" fill="#22D3EE" />
    <circle cx="302" cy="132" r="6" fill="#F59E0B" />
    <circle cx="12" cy="228" r="6" fill="#A78BFA" />
    <circle cx="347" cy="228" r="6" fill="#F472B6" />
  </g>
</svg>
